<?xml version="1.0" encoding="UTF-8"?>
<svg id="Layer_2" data-name="Layer 2" xmlns="http://www.w3.org/2000/svg" xmlns:xlink="http://www.w3.org/1999/xlink" viewBox="0 0 7966.23 4211.7">
  <defs>
    <style>
      .cls-1 {
        fill: url(#linear-gradient);
      }

      .cls-2 {
        fill: #3d3d3d;
      }

      .cls-3 {
        fill: url(#linear-gradient-2);
      }
    </style>
    <linearGradient id="linear-gradient" x1="-132.85" y1="2190.22" x2="3421.75" y2="2190.22" gradientTransform="translate(-24.32 37.89) rotate(-3.45)" gradientUnits="userSpaceOnUse">
      <stop offset="0" stop-color="#ffe259"/>
      <stop offset=".36" stop-color="#ffdf58"/>
      <stop offset=".58" stop-color="#ffd757"/>
      <stop offset=".76" stop-color="#ffc855"/>
      <stop offset=".92" stop-color="#ffb452"/>
      <stop offset="1" stop-color="#ffa751"/>
    </linearGradient>
    <linearGradient id="linear-gradient-2" x1="-224.23" y1="2166.08" x2="3491.59" y2="2166.08" gradientTransform="translate(-24.32 37.89) rotate(-3.45)" gradientUnits="userSpaceOnUse">
      <stop offset="0" stop-color="#ffa751"/>
      <stop offset=".24" stop-color="#ffab51"/>
      <stop offset=".53" stop-color="#ffb953"/>
      <stop offset=".83" stop-color="#ffd156"/>
      <stop offset="1" stop-color="#ffe259"/>
    </linearGradient>
  </defs>
  <g>
    <path class="cls-1" d="m2382.56,2217.42c131.21,1367.09-1629.66,2104.85-2289.43,1980.79,1216.64-237.48,1930.12-754.42,1869.68-1758.05C1851.47,591.27,2703.9,113.66,3402.98,27.13c-599.21,241.37-1174.47,586.28-1020.42,2190.29Z"/>
    <path class="cls-3" d="m3471.32,0c-22.81,8.93-45.54,17.95-68.33,27.13-699.08,86.53-1551.51,564.14-1440.17,2413.04,60.44,1003.62-653.04,1520.57-1869.68,1758.05h-.08c-34.07-6.43-65.25-15.13-93.04-26.14,0,0,1735.16-643.06,1408.11-2144.76C1012.92,212.72,3471.32,0,3471.32,0Z"/>
  </g>
  <g>
    <path class="cls-2" d="m3438.26,1736.42c6-44.44-.45-81.54-19.37-111.26-18.92-29.73-58.26-58.86-118.02-87.39-59.77-28.52-109.77-58.11-150.01-88.74-109.91-83.48-160.36-188.89-151.35-316.23,5.41-73.27,28.38-138.59,68.92-195.95,40.54-57.35,94.74-101.94,162.62-133.79,67.86-31.83,140.54-46.85,218.02-45.05,112.31,2.41,200.15,41.3,263.52,116.67,63.36,75.38,92.64,171.94,87.84,289.65l-257.67-.9c6.6-123.12-32.74-185.59-118.02-187.39-43.85-1.2-81.54,13.06-113.07,42.79s-50.61,68.02-57.21,114.87c-9.01,70.27,39.64,130.34,145.95,180.19,106.31,49.86,182.58,106.01,228.84,168.48,51.64,69.07,73.57,153.16,65.76,252.26-9.01,114.12-54.06,205.27-135.14,273.43-81.08,68.17-182.3,101.04-303.61,98.65-121.94-2.41-218.34-43.83-289.2-124.33-70.88-80.48-103.31-183.48-97.3-309.02l259.47.9c-4.81,77.48,5.25,132.88,30.18,166.22,24.91,33.33,64.11,50,117.57,50,46.85-.59,83.78-15.16,110.81-43.69,27.03-28.52,43.83-65.32,50.45-110.37Z"/>
    <path class="cls-2" d="m4148.2,1626.5l-80.18,461.27h-258.57l227.03-1311.75,420.73.9c114.71,3.6,204.65,44.59,269.83,122.98,65.16,78.38,92.64,179.44,82.43,303.16-12.02,128.54-60.67,231.4-145.95,308.57-85.29,77.18-194.01,115.77-326.14,115.77l-189.19-.9Zm37.84-220.73l166.67,1.8c64.26-1.2,114.1-25.97,149.55-74.33,35.43-48.34,52.25-113.36,50.45-195.05-1.21-41.44-11.12-74.47-29.73-99.1-18.62-24.62-44.45-38.13-77.48-40.54l-188.3-1.8-71.17,409.02Z"/>
    <path class="cls-2" d="m5289.67,2105.8c-115.32-2.41-206.76-40.23-274.33-113.52-67.57-73.27-104.37-175.08-110.37-305.42-2.41-45.05-.61-90.68,5.41-136.94l33.33-218.03c17.41-116.52,51.35-219.83,101.8-309.92,50.46-90.09,113.21-157.06,188.3-200.91,75.07-43.84,159.76-64.87,254.06-63.07,116.52,2.41,207.96,42.2,274.33,119.37,66.36,77.18,101.95,182.75,106.76,316.68,1.2,50.45-1.5,98.2-8.11,143.25l-29.73,200.91c-27.03,180.18-87.84,320.59-182.44,421.18-94.59,100.61-214.28,149.4-359.02,146.4Zm312.62-777.5c7.21-61.86,10.81-109.6,10.81-143.25-3.01-133.93-51.35-202.71-145.05-206.31-72.07-3-130.18,24.19-174.33,81.54-44.14,57.36-74.93,147.3-92.35,269.83l-31.53,220.72c-7.21,59.46-9.91,106.02-8.11,139.65,3,126.13,52.55,191.31,148.66,195.5,68.47,2.41,124.62-22.82,168.48-75.68,43.83-52.85,74.46-139.33,91.89-259.47l31.53-222.53Z"/>
    <path class="cls-2" d="m6399.61,1608.48h-131.54l-82.88,479.29h-258.57l227.03-1311.75,396.41.9c117.12,3.6,206.9,39.64,269.38,108.11,62.46,68.47,88.88,161.87,79.28,280.19-15.02,179.59-96.71,304.51-245.05,374.79l131.54,533.35v14.42h-277.49l-108.11-479.29Zm-93.7-220.73l136.04,1.8c62.46-1.2,111.72-25.97,147.75-74.33,36.04-48.34,53.75-112.46,53.15-192.35-2.41-78.68-36.94-120.42-103.6-125.23l-164.87-.9-68.47,391Z"/>
    <path class="cls-2" d="m7895.16,996.75h-314.42l-189.19,1091.02h-259.47l189.2-1091.02h-309.92l38.74-220.73h883.82l-38.74,220.73Z"/>
  </g>
  <g>
    <path class="cls-2" d="m2601.2,3748.17l227.03-1311.75,323.43.9c95.5,2.41,176.13,27.34,241.9,74.78,65.77,47.45,112.91,113.22,141.45,197.3,28.52,84.1,36.18,178.09,22.98,281.99l-28.83,191.9c-26.44,176.58-90.25,314.73-191.45,414.43-101.21,99.71-228.39,149.86-381.54,150.46h-354.97Zm447.76-1091.02l-151.35,871.2,63.96,1.8c89.49,0,158.86-25.98,208.12-77.93,49.24-51.95,82.28-135.59,99.1-250.91l30.63-212.62c8.4-69.06,11.71-119.51,9.91-151.36-3.01-60.05-18.33-104.51-45.94-133.34-27.64-28.83-68.47-44.14-122.53-45.94l-91.9-.9Z"/>
    <path class="cls-2" d="m4094.94,3268.87h-131.54l-82.88,479.29h-258.57l227.03-1311.75,396.41.9c117.12,3.61,206.9,39.64,269.38,108.11,62.46,68.47,88.88,161.87,79.28,280.19-15.02,179.6-96.71,304.52-245.05,374.79l131.54,533.35v14.42h-277.49l-108.11-479.29Zm-93.7-220.73l136.04,1.8c62.46-1.19,111.71-25.97,147.75-74.33,36.04-48.34,53.75-112.46,53.15-192.35-2.41-78.67-36.94-120.41-103.6-125.22l-164.87-.9-68.47,391Z"/>
    <path class="cls-2" d="m5377.86,3180.58h-400.01l-60.36,347.76h473.88l-38.74,219.82h-731.55l227.03-1311.75h730.65l-38.74,220.73h-471.19l-54.06,309.92h400.92l-37.84,213.52Z"/>
    <path class="cls-2" d="m6165.28,3479.69h-348.66l-114.41,268.48h-281.09l625.24-1311.75h236.95l172.08,1311.75h-267.57l-22.53-268.48Zm-254.06-220.73h236.04l-36.94-464.88-199.11,464.88Z"/>
    <path class="cls-2" d="m7146.38,2436.41l76.58,943.27,402.72-943.27h340.55l-227.93,1311.75h-259.47l63.07-363.07,113.52-518.03-401.81,881.11h-175.68l-99.1-910.84-74.78,564.88-59.46,345.96h-258.57l227.03-1311.75h333.34Z"/>
  </g>
</svg>